<svg width="180" height="180" viewBox="0 0 180 180" fill="none" xmlns="http://www.w3.org/2000/svg">
  <!-- Background with subtle gradient -->
  <defs>
    <linearGradient id="bg" x1="0%" y1="0%" x2="100%" y2="100%">
      <stop offset="0%" style="stop-color:#1e293b;stop-opacity:1" />
      <stop offset="100%" style="stop-color:#334155;stop-opacity:1" />
    </linearGradient>
    <linearGradient id="qrBg" x1="0%" y1="0%" x2="100%" y2="100%">
      <stop offset="0%" style="stop-color:#ffffff;stop-opacity:1" />
      <stop offset="100%" style="stop-color:#f8fafc;stop-opacity:1" />
    </linearGradient>
  </defs>
  
  <!-- Background -->
  <rect width="180" height="180" rx="40" fill="url(#bg)"/>
  
  <!-- QR Code container -->
  <g transform="translate(25, 25)">
    <rect x="0" y="0" width="130" height="130" rx="12" fill="url(#qrBg)" stroke="rgba(148,163,184,0.2)" stroke-width="1"/>
    
    <!-- QR Code pattern -->
    <!-- Top-left corner -->
    <rect x="12" y="12" width="26" height="26" fill="#1e293b" rx="3"/>
    <rect x="16" y="16" width="18" height="18" fill="white" rx="2"/>
    <rect x="22" y="22" width="6" height="6" fill="#1e293b" rx="1"/>
    
    <!-- Top-right corner -->
    <rect x="92" y="12" width="26" height="26" fill="#1e293b" rx="3"/>
    <rect x="96" y="16" width="18" height="18" fill="white" rx="2"/>
    <rect x="102" y="22" width="6" height="6" fill="#1e293b" rx="1"/>
    
    <!-- Bottom-left corner -->
    <rect x="12" y="92" width="26" height="26" fill="#1e293b" rx="3"/>
    <rect x="16" y="96" width="18" height="18" fill="white" rx="2"/>
    <rect x="22" y="102" width="6" height="6" fill="#1e293b" rx="1"/>
    
    <!-- Data pattern with colorful modules -->
    <rect x="48" y="16" width="6" height="6" fill="#3b82f6" rx="1"/>
    <rect x="56" y="16" width="6" height="6" fill="#1e293b" rx="1"/>
    <rect x="64" y="16" width="6" height="6" fill="#8b5cf6" rx="1"/>
    <rect x="72" y="16" width="6" height="6" fill="#1e293b" rx="1"/>
    <rect x="80" y="16" width="6" height="6" fill="#06b6d4" rx="1"/>
    
    <rect x="16" y="48" width="6" height="6" fill="#1e293b" rx="1"/>
    <rect x="24" y="48" width="6" height="6" fill="#8b5cf6" rx="1"/>
    <rect x="32" y="48" width="6" height="6" fill="#1e293b" rx="1"/>
    
    <rect x="48" y="48" width="6" height="6" fill="#06b6d4" rx="1"/>
    <rect x="56" y="48" width="6" height="6" fill="#1e293b" rx="1"/>
    <rect x="64" y="48" width="6" height="6" fill="#3b82f6" rx="1"/>
    <rect x="72" y="48" width="6" height="6" fill="#1e293b" rx="1"/>
    <rect x="80" y="48" width="6" height="6" fill="#8b5cf6" rx="1"/>
    <rect x="88" y="48" width="6" height="6" fill="#1e293b" rx="1"/>
    <rect x="96" y="48" width="6" height="6" fill="#06b6d4" rx="1"/>
    <rect x="104" y="48" width="6" height="6" fill="#1e293b" rx="1"/>
    <rect x="112" y="48" width="6" height="6" fill="#3b82f6" rx="1"/>
    
    <rect x="48" y="56" width="6" height="6" fill="#1e293b" rx="1"/>
    <rect x="56" y="56" width="6" height="6" fill="#6366f1" rx="1"/>
    <rect x="64" y="56" width="6" height="6" fill="#1e293b" rx="1"/>
    <rect x="72" y="56" width="6" height="6" fill="#8b5cf6" rx="1"/>
    <rect x="80" y="56" width="6" height="6" fill="#1e293b" rx="1"/>
    <rect x="88" y="56" width="6" height="6" fill="#06b6d4" rx="1"/>
    <rect x="96" y="56" width="6" height="6" fill="#1e293b" rx="1"/>
    <rect x="104" y="56" width="6" height="6" fill="#3b82f6" rx="1"/>
    <rect x="112" y="56" width="6" height="6" fill="#1e293b" rx="1"/>
    
    <rect x="48" y="64" width="6" height="6" fill="#8b5cf6" rx="1"/>
    <rect x="56" y="64" width="6" height="6" fill="#1e293b" rx="1"/>
    <rect x="64" y="64" width="6" height="6" fill="#06b6d4" rx="1"/>
    <rect x="72" y="64" width="6" height="6" fill="#1e293b" rx="1"/>
    <rect x="80" y="64" width="6" height="6" fill="#3b82f6" rx="1"/>
    <rect x="88" y="64" width="6" height="6" fill="#1e293b" rx="1"/>
    <rect x="96" y="64" width="6" height="6" fill="#6366f1" rx="1"/>
    <rect x="104" y="64" width="6" height="6" fill="#1e293b" rx="1"/>
    
    <rect x="48" y="72" width="6" height="6" fill="#1e293b" rx="1"/>
    <rect x="56" y="72" width="6" height="6" fill="#06b6d4" rx="1"/>
    <rect x="64" y="72" width="6" height="6" fill="#1e293b" rx="1"/>
    <rect x="72" y="72" width="6" height="6" fill="#3b82f6" rx="1"/>
    <rect x="80" y="72" width="6" height="6" fill="#1e293b" rx="1"/>
    <rect x="88" y="72" width="6" height="6" fill="#8b5cf6" rx="1"/>
    <rect x="96" y="72" width="6" height="6" fill="#1e293b" rx="1"/>
    <rect x="104" y="72" width="6" height="6" fill="#06b6d4" rx="1"/>
    <rect x="112" y="72" width="6" height="6" fill="#1e293b" rx="1"/>
    
    <rect x="16" y="80" width="6" height="6" fill="#3b82f6" rx="1"/>
    <rect x="24" y="80" width="6" height="6" fill="#1e293b" rx="1"/>
    <rect x="32" y="80" width="6" height="6" fill="#8b5cf6" rx="1"/>
    
    <rect x="48" y="80" width="6" height="6" fill="#1e293b" rx="1"/>
    <rect x="56" y="80" width="6" height="6" fill="#06b6d4" rx="1"/>
    <rect x="64" y="80" width="6" height="6" fill="#1e293b" rx="1"/>
    <rect x="72" y="80" width="6" height="6" fill="#8b5cf6" rx="1"/>
    <rect x="80" y="80" width="6" height="6" fill="#1e293b" rx="1"/>
    <rect x="88" y="80" width="6" height="6" fill="#3b82f6" rx="1"/>
    <rect x="96" y="80" width="6" height="6" fill="#1e293b" rx="1"/>
    <rect x="104" y="80" width="6" height="6" fill="#6366f1" rx="1"/>
    <rect x="112" y="80" width="6" height="6" fill="#1e293b" rx="1"/>
    
    <rect x="48" y="88" width="6" height="6" fill="#06b6d4" rx="1"/>
    <rect x="56" y="88" width="6" height="6" fill="#1e293b" rx="1"/>
    <rect x="64" y="88" width="6" height="6" fill="#3b82f6" rx="1"/>
    <rect x="72" y="88" width="6" height="6" fill="#1e293b" rx="1"/>
    <rect x="80" y="88" width="6" height="6" fill="#8b5cf6" rx="1"/>
    <rect x="88" y="88" width="6" height="6" fill="#1e293b" rx="1"/>
    <rect x="96" y="88" width="6" height="6" fill="#06b6d4" rx="1"/>
    
    <rect x="16" y="96" width="6" height="6" fill="#1e293b" rx="1"/>
    <rect x="24" y="96" width="6" height="6" fill="#06b6d4" rx="1"/>
    <rect x="32" y="96" width="6" height="6" fill="#1e293b" rx="1"/>
    <rect x="48" y="96" width="6" height="6" fill="#3b82f6" rx="1"/>
    
    <rect x="48" y="104" width="6" height="6" fill="#1e293b" rx="1"/>
    <rect x="56" y="104" width="6" height="6" fill="#8b5cf6" rx="1"/>
    <rect x="64" y="104" width="6" height="6" fill="#1e293b" rx="1"/>
    <rect x="72" y="104" width="6" height="6" fill="#6366f1" rx="1"/>
    <rect x="80" y="104" width="6" height="6" fill="#1e293b" rx="1"/>
    <rect x="88" y="104" width="6" height="6" fill="#06b6d4" rx="1"/>
    <rect x="96" y="104" width="6" height="6" fill="#1e293b" rx="1"/>
    <rect x="104" y="104" width="6" height="6" fill="#3b82f6" rx="1"/>
    <rect x="112" y="104" width="6" height="6" fill="#1e293b" rx="1"/>
    
    <rect x="48" y="112" width="6" height="6" fill="#3b82f6" rx="1"/>
    <rect x="56" y="112" width="6" height="6" fill="#1e293b" rx="1"/>
    <rect x="64" y="112" width="6" height="6" fill="#6366f1" rx="1"/>
    <rect x="72" y="112" width="6" height="6" fill="#1e293b" rx="1"/>
    <rect x="80" y="112" width="6" height="6" fill="#06b6d4" rx="1"/>
    <rect x="88" y="112" width="6" height="6" fill="#1e293b" rx="1"/>
    <rect x="96" y="112" width="6" height="6" fill="#8b5cf6" rx="1"/>
    <rect x="104" y="112" width="6" height="6" fill="#1e293b" rx="1"/>
    <rect x="112" y="112" width="6" height="6" fill="#06b6d4" rx="1"/>
  </g>
</svg>