<svg width="32" height="32" viewBox="0 0 32 32" fill="none" xmlns="http://www.w3.org/2000/svg">
  <!-- Background -->
  <rect width="32" height="32" rx="6" fill="#1f354f"/>
  
  <!-- QR Code pattern -->
  <g transform="translate(4, 4)">
    <!-- Top-left corner -->
    <rect x="0" y="0" width="8" height="8" fill="#3b82f6" rx="1"/>
    <rect x="1" y="1" width="6" height="6" fill="white" rx="0.5"/>
    <rect x="3" y="3" width="2" height="2" fill="#1f354f"/>
    
    <!-- Top-right corner -->
    <rect x="16" y="0" width="8" height="8" fill="#3b82f6" rx="1"/>
    <rect x="17" y="1" width="6" height="6" fill="white" rx="0.5"/>
    <rect x="19" y="3" width="2" height="2" fill="#1f354f"/>
    
    <!-- Bottom-left corner -->
    <rect x="0" y="16" width="8" height="8" fill="#3b82f6" rx="1"/>
    <rect x="1" y="17" width="6" height="6" fill="white" rx="0.5"/>
    <rect x="3" y="19" width="2" height="2" fill="#1f354f"/>
    
    <!-- Data pattern -->
    <rect x="10" y="2" width="2" height="2" fill="#8b5cf6" rx="0.25"/>
    <rect x="12" y="2" width="2" height="2" fill="#1f354f"/>
    <rect x="14" y="2" width="2" height="2" fill="#06b6d4" rx="0.25"/>
    
    <rect x="2" y="10" width="2" height="2" fill="#1f354f"/>
    <rect x="4" y="10" width="2" height="2" fill="#8b5cf6" rx="0.25"/>
    <rect x="6" y="10" width="2" height="2" fill="#1f354f"/>
    
    <rect x="10" y="10" width="2" height="2" fill="#06b6d4" rx="0.25"/>
    <rect x="12" y="10" width="2" height="2" fill="#1f354f"/>
    <rect x="14" y="10" width="2" height="2" fill="#3b82f6" rx="0.25"/>
    <rect x="16" y="10" width="2" height="2" fill="#1f354f"/>
    <rect x="18" y="10" width="2" height="2" fill="#8b5cf6" rx="0.25"/>
    <rect x="20" y="10" width="2" height="2" fill="#1f354f"/>
    <rect x="22" y="10" width="2" height="2" fill="#06b6d4" rx="0.25"/>
    
    <rect x="10" y="12" width="2" height="2" fill="#1f354f"/>
    <rect x="12" y="12" width="2" height="2" fill="#3b82f6" rx="0.25"/>
    <rect x="14" y="12" width="2" height="2" fill="#1f354f"/>
    <rect x="16" y="12" width="2" height="2" fill="#8b5cf6" rx="0.25"/>
    <rect x="18" y="12" width="2" height="2" fill="#1f354f"/>
    <rect x="20" y="12" width="2" height="2" fill="#06b6d4" rx="0.25"/>
    <rect x="22" y="12" width="2" height="2" fill="#1f354f"/>
    
    <rect x="10" y="14" width="2" height="2" fill="#8b5cf6" rx="0.25"/>
    <rect x="12" y="14" width="2" height="2" fill="#1f354f"/>
    <rect x="14" y="14" width="2" height="2" fill="#3b82f6" rx="0.25"/>
    <rect x="16" y="14" width="2" height="2" fill="#1f354f"/>
    <rect x="18" y="14" width="2" height="2" fill="#06b6d4" rx="0.25"/>
    <rect x="20" y="14" width="2" height="2" fill="#1f354f"/>
    <rect x="22" y="14" width="2" height="2" fill="#8b5cf6" rx="0.25"/>
    
    <rect x="2" y="16" width="2" height="2" fill="#3b82f6" rx="0.25"/>
    <rect x="4" y="16" width="2" height="2" fill="#1f354f"/>
    <rect x="6" y="16" width="2" height="2" fill="#8b5cf6" rx="0.25"/>
    <rect x="8" y="16" width="2" height="2" fill="#1f354f"/>
    
    <rect x="10" y="16" width="2" height="2" fill="#1f354f"/>
    <rect x="12" y="16" width="2" height="2" fill="#06b6d4" rx="0.25"/>
    <rect x="14" y="16" width="2" height="2" fill="#1f354f"/>
    <rect x="16" y="16" width="2" height="2" fill="#8b5cf6" rx="0.25"/>
    <rect x="18" y="16" width="2" height="2" fill="#1f354f"/>
    <rect x="20" y="16" width="2" height="2" fill="#3b82f6" rx="0.25"/>
    <rect x="22" y="16" width="2" height="2" fill="#1f354f"/>
    
    <rect x="10" y="18" width="2" height="2" fill="#06b6d4" rx="0.25"/>
    <rect x="12" y="18" width="2" height="2" fill="#1f354f"/>
    <rect x="14" y="18" width="2" height="2" fill="#3b82f6" rx="0.25"/>
    <rect x="16" y="18" width="2" height="2" fill="#1f354f"/>
    <rect x="18" y="18" width="2" height="2" fill="#8b5cf6" rx="0.25"/>
    <rect x="20" y="18" width="2" height="2" fill="#1f354f"/>
    <rect x="22" y="18" width="2" height="2" fill="#06b6d4" rx="0.25"/>
    
    <rect x="2" y="20" width="2" height="2" fill="#1f354f"/>
    <rect x="4" y="20" width="2" height="2" fill="#06b6d4" rx="0.25"/>
    <rect x="6" y="20" width="2" height="2" fill="#1f354f"/>
    <rect x="8" y="20" width="2" height="2" fill="#3b82f6" rx="0.25"/>
    
    <rect x="10" y="20" width="2" height="2" fill="#1f354f"/>
    <rect x="12" y="20" width="2" height="2" fill="#6366f1" rx="0.25"/>
    <rect x="14" y="20" width="2" height="2" fill="#1f354f"/>
    <rect x="16" y="20" width="2" height="2" fill="#8b5cf6" rx="0.25"/>
    <rect x="18" y="20" width="2" height="2" fill="#1f354f"/>
    <rect x="20" y="20" width="2" height="2" fill="#06b6d4" rx="0.25"/>
    <rect x="22" y="20" width="2" height="2" fill="#1f354f"/>
    
    <rect x="10" y="22" width="2" height="2" fill="#3b82f6" rx="0.25"/>
    <rect x="12" y="22" width="2" height="2" fill="#1f354f"/>
    <rect x="14" y="22" width="2" height="2" fill="#6366f1" rx="0.25"/>
    <rect x="16" y="22" width="2" height="2" fill="#1f354f"/>
    <rect x="18" y="22" width="2" height="2" fill="#06b6d4" rx="0.25"/>
    <rect x="20" y="22" width="2" height="2" fill="#1f354f"/>
    <rect x="22" y="22" width="2" height="2" fill="#8b5cf6" rx="0.25"/>
  </g>
</svg>